<svg width="20" height="10" viewBox="0 0 20 10" fill="none" xmlns="http://www.w3.org/2000/svg">
<path d="M2.51246 2.64298C3.10671 2.01786 3.91269 1.66667 4.75309 1.66667H7.12963C7.56714 1.66667 7.92181 1.29357 7.92181 0.833333C7.92181 0.373096 7.56714 0 7.12963 0H4.75309C3.49249 0 2.28352 0.526784 1.39215 1.46447C0.50077 2.40215 0 3.67392 0 5C0 6.32608 0.50077 7.59785 1.39215 8.53553C1.83351 8.99983 2.35749 9.36812 2.93416 9.6194C3.51083 9.87067 4.1289 10 4.75309 10H7.12963C7.56714 10 7.92181 9.6269 7.92181 9.16667C7.92181 8.70643 7.56714 8.33333 7.12963 8.33333H4.75309C4.33696 8.33333 3.92491 8.24711 3.54047 8.0796C3.15602 7.91208 2.8067 7.66655 2.51246 7.35702C1.91821 6.7319 1.58436 5.88405 1.58436 5C1.58436 4.11595 1.91821 3.2681 2.51246 2.64298Z" fill="#003049"/>
<path d="M11.8827 0C11.4452 0 11.0905 0.373096 11.0905 0.833333C11.0905 1.29357 11.4452 1.66667 11.8827 1.66667H14.2593C14.6754 1.66667 15.0874 1.75289 15.4719 1.9204C15.8563 2.08792 16.2056 2.33345 16.4999 2.64298C16.7941 2.95251 17.0275 3.31997 17.1868 3.72439C17.346 4.12881 17.428 4.56226 17.428 5C17.428 5.43774 17.346 5.87119 17.1868 6.27561C17.0275 6.68003 16.7941 7.04749 16.4999 7.35702C16.2056 7.66655 15.8563 7.91208 15.4719 8.0796C15.0874 8.24711 14.6754 8.33333 14.2593 8.33333H11.8827C11.4452 8.33333 11.0905 8.70643 11.0905 9.16667C11.0905 9.6269 11.4452 10 11.8827 10H14.2593C14.8834 10 15.5015 9.87067 16.0782 9.6194C16.6549 9.36812 17.1788 8.99983 17.6202 8.53553C18.0616 8.07124 18.4117 7.52004 18.6505 6.91342C18.8894 6.30679 19.0123 5.65661 19.0123 5C19.0123 4.34339 18.8894 3.69321 18.6505 3.08658C18.4117 2.47995 18.0616 1.92876 17.6202 1.46447C17.1788 1.00017 16.6549 0.631876 16.0782 0.380602C15.5015 0.129329 14.8834 0 14.2593 0H11.8827Z" fill="#003049"/>
<path d="M6.33745 4.16667C5.89994 4.16667 5.54527 4.53976 5.54527 5C5.54527 5.46024 5.89994 5.83333 6.33745 5.83333H12.6749C13.1124 5.83333 13.4671 5.46024 13.4671 5C13.4671 4.53976 13.1124 4.16667 12.6749 4.16667H6.33745Z" fill="#003049"/>
</svg>
