<svg width="18" height="18" viewBox="0 0 18 18" fill="none" xmlns="http://www.w3.org/2000/svg">
<path d="M14.5973 15.5527L11.0246 11.98L11.0246 14.4004C11.0246 14.7732 10.7224 15.0754 10.3496 15.0754C9.97681 15.0754 9.6746 14.7732 9.6746 14.4004L9.6746 10.3504C9.6746 9.97757 9.97681 9.67537 10.3496 9.67537L14.3996 9.67537C14.7724 9.67537 15.0746 9.97757 15.0746 10.3504C15.0746 10.7232 14.7724 11.0254 14.3996 11.0254L11.9792 11.0254L15.5519 14.5981C15.8155 14.8617 15.8155 15.2891 15.5519 15.5527C15.2883 15.8163 14.8609 15.8163 14.5973 15.5527Z" fill="#2E5367"/>
<path d="M8.3246 3.60037C8.3246 3.22757 8.0224 2.92537 7.6496 2.92537C7.27681 2.92537 6.9746 3.22757 6.9746 3.60037L6.9746 6.02077L3.4019 2.44807C3.1383 2.18446 2.71091 2.18446 2.44731 2.44807C2.1837 2.71167 2.1837 3.13906 2.44731 3.40266L6.02001 6.97537L3.5996 6.97537C3.22681 6.97537 2.9246 7.27757 2.9246 7.65037C2.9246 8.02316 3.22681 8.32537 3.5996 8.32537L7.6496 8.32537C8.0224 8.32537 8.3246 8.02316 8.3246 7.65037L8.3246 3.60037Z" fill="#2E5367"/>
<path d="M15.5527 3.40266L11.98 6.97537H14.4004C14.7732 6.97537 15.0754 7.27757 15.0754 7.65037C15.0754 8.02316 14.7732 8.32537 14.4004 8.32537L10.3504 8.32537C9.9776 8.32537 9.6754 8.02316 9.6754 7.65037V3.60037C9.6754 3.22757 9.9776 2.92537 10.3504 2.92537C10.7232 2.92537 11.0254 3.22757 11.0254 3.60037V6.02077L14.5981 2.44807C14.8617 2.18447 15.2891 2.18447 15.5527 2.44807C15.8163 2.71167 15.8163 3.13906 15.5527 3.40266Z" fill="#2E5367"/>
<path d="M3.6004 9.67537C3.2276 9.67537 2.9254 9.97757 2.9254 10.3504C2.9254 10.7232 3.2276 11.0254 3.6004 11.0254H6.0208L2.4481 14.5981C2.1845 14.8617 2.1845 15.2891 2.4481 15.5527C2.7117 15.8163 3.13909 15.8163 3.40269 15.5527L6.9754 11.98V14.4004C6.9754 14.7732 7.2776 15.0754 7.6504 15.0754C8.02319 15.0754 8.3254 14.7732 8.3254 14.4004L8.3254 10.3504C8.3254 9.97757 8.02319 9.67537 7.6504 9.67537H3.6004Z" fill="#2E5367"/>
</svg>
