<svg width="20" height="20" viewBox="0 0 20 20" fill="none" xmlns="http://www.w3.org/2000/svg">
<g clip-path="url(#clip0_3001_2043)">
<path d="M10.2152 6.68694C9.82727 6.6204 9.42831 6.6933 9.08897 6.89273C8.74964 7.09216 8.49183 7.40525 8.36122 7.77655C8.20849 8.21071 7.73273 8.43885 7.29857 8.28612C6.86441 8.1334 6.63627 7.65763 6.78899 7.22348C7.05022 6.48089 7.56583 5.85471 8.2445 5.45585C8.92317 5.05699 9.7211 4.91119 10.497 5.04427C11.2728 5.17735 11.9766 5.58073 12.4835 6.18295C12.9904 6.78506 13.2678 7.54708 13.2668 8.33411C13.2664 9.6094 12.3209 10.4516 11.6457 10.9017C11.2827 11.1437 10.9256 11.3217 10.6625 11.4386C10.5298 11.4976 10.4181 11.5423 10.3375 11.573C10.2972 11.5884 10.2645 11.6003 10.2407 11.6088L10.2117 11.6189L10.2025 11.622L10.1993 11.6231L10.198 11.6236C10.198 11.6236 10.197 11.6239 9.93344 10.8333L10.197 11.6239C9.76034 11.7695 9.28841 11.5335 9.14287 11.0969C8.99743 10.6605 9.23298 10.1889 9.66904 10.0431L9.68234 10.0384C9.69516 10.0338 9.71617 10.0262 9.7442 10.0155C9.80039 9.99414 9.88395 9.96077 9.98562 9.91559C10.1913 9.82417 10.4592 9.68962 10.7212 9.51497C11.2959 9.13186 11.6001 8.72429 11.6001 8.33335L11.6001 8.3321C11.6007 7.93851 11.462 7.5574 11.2085 7.25629C10.955 6.95517 10.6031 6.75349 10.2152 6.68694Z" fill="#FEF9EE"/>
<path d="M10 13.3333C9.53977 13.3333 9.16668 13.7064 9.16668 14.1667C9.16668 14.6269 9.53977 15 10 15H10.0083C10.4686 15 10.8417 14.6269 10.8417 14.1667C10.8417 13.7064 10.4686 13.3333 10.0083 13.3333H10Z" fill="#FEF9EE"/>
<path fill-rule="evenodd" clip-rule="evenodd" d="M0.833344 9.99999C0.833344 4.93738 4.9374 0.833328 10 0.833328C15.0626 0.833328 19.1667 4.93738 19.1667 9.99999C19.1667 15.0626 15.0626 19.1667 10 19.1667C4.9374 19.1667 0.833344 15.0626 0.833344 9.99999ZM10 2.49999C5.85787 2.49999 2.50001 5.85786 2.50001 9.99999C2.50001 14.1421 5.85787 17.5 10 17.5C14.1421 17.5 17.5 14.1421 17.5 9.99999C17.5 5.85786 14.1421 2.49999 10 2.49999Z" fill="#FEF9EE"/>
</g>
<defs>
<clipPath id="clip0_3001_2043">
<rect width="20" height="20" fill="white"/>
</clipPath>
</defs>
</svg>
