<svg width="18" height="18" viewBox="0 0 18 18" fill="none" xmlns="http://www.w3.org/2000/svg">
<path d="M15.75 11.025C15.75 10.6522 15.4478 10.35 15.075 10.35C14.7022 10.35 14.4 10.6522 14.4 11.025L14.4 13.4454L10.8273 9.8727C10.5637 9.6091 10.1363 9.6091 9.8727 9.8727C9.6091 10.1363 9.6091 10.5637 9.8727 10.8273L13.4454 14.4L11.025 14.4C10.6522 14.4 10.35 14.7022 10.35 15.075C10.35 15.4478 10.6522 15.75 11.025 15.75L15.075 15.75C15.4478 15.75 15.75 15.4478 15.75 15.075L15.75 11.025Z" fill="#2E5367"/>
<path d="M6.975 3.6C7.34779 3.6 7.65 3.29779 7.65 2.925C7.65 2.55221 7.34779 2.25 6.975 2.25L2.925 2.25C2.55221 2.25 2.25 2.55221 2.25 2.925L2.25 6.975C2.25 7.34779 2.55221 7.65 2.925 7.65C3.29779 7.65 3.6 7.34779 3.6 6.975L3.6 4.55459L7.1727 8.1273C7.43631 8.3909 7.86369 8.3909 8.1273 8.1273C8.3909 7.86369 8.3909 7.43631 8.1273 7.1727L4.55459 3.6L6.975 3.6Z" fill="#2E5367"/>
<path d="M11.025 2.25C10.6522 2.25 10.35 2.55221 10.35 2.925C10.35 3.29779 10.6522 3.6 11.025 3.6L13.4454 3.6L9.8727 7.1727C9.6091 7.43631 9.6091 7.86369 9.8727 8.1273C10.1363 8.3909 10.5637 8.3909 10.8273 8.1273L14.4 4.55459V6.975C14.4 7.34779 14.7022 7.65 15.075 7.65C15.4478 7.65 15.75 7.34779 15.75 6.975V2.925C15.75 2.55221 15.4478 2.25 15.075 2.25L11.025 2.25Z" fill="#2E5367"/>
<path d="M3.6 11.025C3.6 10.6522 3.29779 10.35 2.925 10.35C2.55221 10.35 2.25 10.6522 2.25 11.025L2.25 15.075C2.25 15.4478 2.55221 15.75 2.925 15.75H6.975C7.34779 15.75 7.65 15.4478 7.65 15.075C7.65 14.7022 7.34779 14.4 6.975 14.4H4.55459L8.1273 10.8273C8.3909 10.5637 8.3909 10.1363 8.1273 9.8727C7.86369 9.6091 7.43631 9.6091 7.1727 9.8727L3.6 13.4454L3.6 11.025Z" fill="#2E5367"/>
</svg>
