<svg class="%s" width="12" height="12" viewBox="0 0 12 12" fill="currentColor" xmlns="http://www.w3.org/2000/svg"><path fill-rule="evenodd" clip-rule="evenodd" d="M2.75179 1.37596C2.75179 2.13584 2.13578 2.75185 1.3759 2.75185C0.616009 2.75185 0 2.13584 0 1.37596C0 0.61607 0.616009 6.10352e-05 1.3759 6.10352e-05C2.13578 6.10352e-05 2.75179 0.61607 2.75179 1.37596ZM4.04982 11.4281V3.79462H6.32495V4.83849H6.35702C6.67332 4.23921 7.44679 3.60597 8.60071 3.60597C11.0041 3.60597 11.4468 5.18624 11.4468 7.24254V11.4287H9.07548V7.71605C9.07548 6.83128 9.06039 5.69245 7.84233 5.69245C6.6073 5.69245 6.4199 6.65709 6.4199 7.65317V11.4281H4.04982ZM2.56136 3.79462H0.1875V11.4281H2.56136V3.79462Z" /></svg>
