<svg xmlns="http://www.w3.org/2000/svg" width="141" height="40" fill="none"><g fill="#fff" clip-path="url(#clip_sf_logo)"><path d="M2.487 39.88v-6.33H6.81v.724H3.352v2.1h2.714v.723H3.352v2.783h-.865ZM19.087 40c-1.85 0-3.146-1.336-3.146-3.285 0-1.948 1.297-3.284 3.146-3.284 1.84 0 3.147 1.336 3.147 3.285 0 1.948-1.307 3.284-3.147 3.284Zm0-5.826c-1.366 0-2.251.994-2.251 2.541 0 1.548.885 2.542 2.252 2.542 1.366 0 2.241-.994 2.241-2.541 0-1.548-.874-2.542-2.242-2.542ZM31.929 37.459V33.55h.865v3.918c0 1.205.593 1.798 1.699 1.798s1.719-.593 1.719-1.789v-3.927h.855v3.908c0 1.848-1.147 2.541-2.574 2.541-1.428 0-2.564-.693-2.564-2.541ZM51.425 38.393V33.55h.814v6.329h-.693l-3.68-5.084v5.084h-.814v-6.33h.904l3.47 4.843ZM62.316 33.55h2.292c1.99 0 3.247 1.186 3.247 3.165S66.6 39.88 64.608 39.88h-2.292v-6.33Zm2.242 5.617c1.548 0 2.393-.915 2.393-2.452s-.845-2.451-2.393-2.451H63.19v4.902h1.368ZM80.374 33.55l2.634 6.33h-.925l-.764-1.859h-2.886l-.743 1.859h-.855l2.584-6.33h.955Zm-1.669 3.778h2.333l-1.156-2.813h-.04l-1.137 2.813ZM93.717 39.88v-5.606h-2.302v-.723h5.51v.723h-2.343v5.606h-.865ZM107.474 33.55v6.33h-.875v-6.33h.875ZM120.404 40c-1.85 0-3.147-1.336-3.147-3.285 0-1.948 1.297-3.284 3.147-3.284 1.84 0 3.147 1.336 3.147 3.285 0 1.948-1.307 3.284-3.147 3.284Zm0-5.826c-1.367 0-2.252.994-2.252 2.541 0 1.548.885 2.542 2.252 2.542 1.367 0 2.242-.994 2.242-2.541 0-1.548-.875-2.542-2.242-2.542ZM137.699 38.393V33.55h.814v6.329h-.694l-3.68-5.084v5.084h-.813v-6.33h.904l3.469 4.843ZM5.388 17.539c.212 4.161 3.23 6.03 6.97 6.03 3.315 0 5.44-1.317 5.44-3.568 0-2.038-1.615-2.802-4.42-3.354l-5.1-.934c-4.165-.765-7.055-3.058-7.055-7.475C1.223 3.228 5.175 0 11.423 0c7.012 0 10.965 3.61 11.05 9.555l-4.888.17c-.17-3.653-2.55-5.563-6.205-5.563-3.145 0-4.93 1.4-4.93 3.694 0 1.954 1.403 2.633 3.825 3.1l4.93.892c5.27.977 7.735 3.482 7.735 7.813 0 5.266-4.547 8.112-10.582 8.112C5.473 27.773.5 24.205.5 17.75l4.888-.212ZM30.925.51v26.753h-5.312V.51h5.312ZM122.948 17.539c.212 4.161 3.23 6.03 6.97 6.03 3.314 0 5.44-1.317 5.44-3.568 0-2.038-1.616-2.802-4.42-3.354l-5.1-.934c-4.166-.765-7.056-3.058-7.056-7.475 0-5.01 3.953-8.238 10.2-8.238 7.013 0 10.966 3.61 11.051 9.555l-4.888.17c-.17-3.653-2.55-5.563-6.205-5.563-3.145 0-4.93 1.4-4.93 3.694 0 1.954 1.402 2.633 3.825 3.1l4.93.892c5.27.977 7.735 3.482 7.735 7.813 0 5.266-4.547 8.112-10.582 8.112-6.885 0-11.858-3.568-11.858-10.022l4.888-.212ZM67.454 27.263c-4.03-3.073-6.632-7.92-6.632-13.377 0-5.456 2.602-10.303 6.632-13.376H54.51L48.94 19.959h-.128L42.948.509h-8.372v26.754h4.93V6.2h.17l6.545 21.063h4.547L57.186 6.2h.17v21.063h10.098ZM110.967.51v17.835L98.302.51H87.857c4.03 3.073 6.632 7.92 6.632 13.376 0 5.457-2.602 10.304-6.632 13.377h10.105V8.408l13.685 18.855h4.25V.51h-4.93Z"></path></g><defs><clipPath id="clip_sf_logo"><path fill="#fff" d="M.5 0h140v40H.5z"></path></clipPath></defs></svg>