<svg class="fill-navy w-full h-auto" width="289" height="36" viewBox="0 0 289 36" fill="none" xmlns="http://www.w3.org/2000/svg">
    <g clip-path="url(#clip0_13_621)">
        <path d="M61.0164 15.7446H53.9023V10.5176H73.4657V15.7446H66.3517V35.6213H61.0164V15.7446Z" />
        <path d="M85.7079 28.3654H81.5697V35.6213H76.2344V10.5176H87.0078C92.3431 10.5176 96.1394 14.3003 96.1394 19.4586C96.1394 23.0351 94.2925 25.9924 91.3512 27.4369L96.6183 35.6213H90.3596L85.7079 28.3654ZM81.5697 23.1726H87.1103C89.2992 23.1726 90.8041 21.6251 90.8041 19.4586C90.8041 17.2921 89.2992 15.7446 87.1444 15.7446H81.5697V23.1726Z" />
        <path d="M112.65 32.32H103.758L102.697 35.6213H97.4307L105.536 10.5176H111.008L119.08 35.6213H113.71L112.65 32.32ZM111.008 27.1617L108.204 18.427L105.4 27.1617H111.008Z" />
        <path d="M141.59 10.5176V35.6213H136.323L126.473 20.0088V35.6213H121.206V10.5176H126.473L136.323 26.1301V10.5176H141.59Z" />
        <path d="M154.105 15.2291C151.848 15.2291 150.48 16.3984 150.48 17.8771C150.48 18.8401 151.096 19.4934 152.019 19.8372C153.626 20.4219 155.952 20.1124 158.381 20.8346C161.63 21.7974 163.613 24.2734 163.613 27.7123C163.613 32.5267 159.92 36 154.379 36C149.009 36 145.008 32.6987 145.008 27.8842H150.275C150.275 29.7068 152.053 30.9105 154.447 30.9105C156.944 30.9105 158.346 29.6381 158.346 28.0217C158.346 26.887 157.594 26.1991 156.739 25.8897C155.2 25.3394 152.566 25.5114 150.343 24.8923C147.026 23.964 145.213 21.4191 145.213 18.1522C145.213 13.5098 148.873 10.1396 154.174 10.1396C159.407 10.1396 163.237 13.3035 163.237 17.9458H157.936C157.868 16.2952 156.328 15.2291 154.105 15.2291Z" />
        <path d="M166.896 10.5176H172.197L178.695 24.2042L185.125 10.5176H190.392V35.6213H185.091V22.0033L178.661 35.8964L172.162 22.0033V35.6213H166.896V10.5176Z" />
        <path d="M194.434 10.5176H199.769V35.6213H194.434V10.5176Z" />
        <path d="M209.995 15.7446H202.881V10.5176H222.444V15.7446H215.33V35.6213H209.995V15.7446Z" />
        <path d="M229.45 15.7446H222.336V10.5176H241.899V15.7446H234.785V35.6213H229.45V15.7446Z" />
        <path d="M245.011 10.5176H264.574V15.7446H250.278V20.3871H258.144V25.6143H250.278V30.3942H264.574V35.6213H245.011V10.5176Z" />
        <path d="M277.17 28.3654H273.032V35.6213H267.696V10.5176H278.47C283.805 10.5176 287.601 14.3003 287.601 19.4586C287.601 23.0351 285.754 25.9924 282.813 27.4369L288.08 35.6213H281.822L277.17 28.3654ZM273.032 23.1726H278.572C280.761 23.1726 282.266 21.6251 282.266 19.4586C282.266 17.2921 280.761 15.7446 278.606 15.7446H273.032V23.1726Z" />
        <path d="M31.1257 18.658C29.5983 13.519 24.865 9.77148 19.2572 9.77148C13.6493 9.77148 8.91596 13.519 7.38867 18.658H31.1257Z" />
        <path d="M28.8708 27.8251C27.6336 23.6624 23.7996 20.627 19.2573 20.627C14.7149 20.627 10.8809 23.6624 9.6438 27.8251H28.8708Z" />
        <path d="M27.0445 35.6234C26.0425 32.2517 22.9369 29.793 19.2576 29.793C15.5783 29.793 12.4728 32.2517 11.4707 35.6234H27.0445Z" />
        <path d="M19.2573 2.56731C27.7708 2.56731 35.0978 7.63894 38.4345 14.9382V0H0.0800781V14.9382C3.41697 7.63891 10.7437 2.56731 19.2573 2.56731Z" />
        <path d="M55.9923 1.53594H53.9021V0H59.6501V1.53594H57.5599V7.376H55.9923V1.53594Z" />
        <path d="M60.6829 0H62.2507V2.89992H65.0543V0H66.6219V7.376H65.0543V4.43563H62.2507V7.376H60.6829V0Z" />
        <path d="M67.9346 0H73.4655V1.53594H69.4821V2.89992H71.7934V4.43563H69.4821V5.84032H73.4655V7.37603H67.9346V0Z" />
    </g>
    <defs>
        <clipPath id="clip0_13_621">
            <rect width="289" height="36" fill="white"/>
        </clipPath>
    </defs>
</svg>
