<svg class="w-full text-white" width="289" height="36" xmlns="http://www.w3.org/2000/svg" fill='currentColor'><g clip-path="url(#a)"><path d="M61.016 15.745h-7.114v-5.227h19.564v5.227h-7.114V35.62h-5.336V15.745ZM85.708 28.365H81.57v7.256h-5.336V10.518h10.774c5.335 0 9.131 3.782 9.131 8.94 0 3.577-1.846 6.534-4.788 7.979l5.267 8.184H90.36l-4.652-7.256Zm-4.138-5.192h5.54c2.19 0 3.694-1.548 3.694-3.714 0-2.167-1.505-3.714-3.66-3.714H81.57v7.428ZM112.65 32.32h-8.892l-1.061 3.301h-5.266l8.105-25.103h5.472l8.072 25.103h-5.37l-1.06-3.301Zm-1.642-5.158-2.804-8.735-2.804 8.735h5.608ZM141.59 10.518V35.62h-5.267l-9.85-15.612V35.62h-5.267V10.518h5.267l9.85 15.612V10.518h5.267ZM154.105 15.23c-2.257 0-3.625 1.168-3.625 2.647 0 .963.616 1.616 1.539 1.96 1.607.585 3.933.275 6.362.998 3.249.962 5.232 3.438 5.232 6.877 0 4.815-3.693 8.288-9.234 8.288-5.37 0-9.371-3.301-9.371-8.116h5.267c0 1.823 1.778 3.026 4.172 3.026 2.497 0 3.899-1.272 3.899-2.888 0-1.135-.752-1.823-1.607-2.132-1.539-.55-4.173-.379-6.396-.998-3.317-.928-5.13-3.473-5.13-6.74 0-4.642 3.66-8.012 8.961-8.012 5.233 0 9.063 3.163 9.063 7.806h-5.301c-.068-1.65-1.608-2.717-3.831-2.717ZM166.896 10.518h5.301l6.498 13.686 6.43-13.686h5.267V35.62h-5.301V22.003l-6.43 13.893-6.499-13.893v13.618h-5.266V10.518ZM194.434 10.518h5.335V35.62h-5.335V10.518ZM209.995 15.745h-7.114v-5.227h19.563v5.227h-7.114V35.62h-5.335V15.745Z"/><path d="M229.45 15.745h-7.114v-5.227h19.563v5.227h-7.114V35.62h-5.335V15.745ZM245.011 10.518h19.563v5.227h-14.296v4.642h7.866v5.227h-7.866v4.78h14.296v5.227h-19.563V10.518ZM277.17 28.365h-4.138v7.256h-5.336V10.518h10.774c5.335 0 9.131 3.782 9.131 8.94 0 3.577-1.847 6.534-4.788 7.979l5.267 8.184h-6.258l-4.652-7.256Zm-4.138-5.192h5.54c2.189 0 3.694-1.548 3.694-3.714 0-2.167-1.505-3.714-3.66-3.714h-5.574v7.428ZM31.126 18.658c-1.528-5.139-6.261-8.887-11.869-8.887S8.916 13.52 7.39 18.658h23.737ZM28.87 27.825c-1.236-4.163-5.07-7.198-9.613-7.198-4.542 0-8.376 3.035-9.613 7.198H28.87ZM27.044 35.623c-1.002-3.371-4.107-5.83-7.786-5.83-3.68 0-6.785 2.459-7.787 5.83h15.573Z"/><path d="M19.257 2.567c8.514 0 15.84 5.072 19.177 12.371V0H.08v14.938c3.337-7.3 10.664-12.37 19.177-12.37ZM55.992 1.536h-2.09V0h5.748v1.536h-2.09v5.84h-1.568v-5.84ZM60.683 0h1.568v2.9h2.803V0h1.568v7.376h-1.568v-2.94h-2.803v2.94h-1.568V0ZM67.935 0h5.53v1.536h-3.983V2.9h2.311v1.536h-2.31V5.84h3.983v1.536h-5.531V0Z"/></g><defs><clipPath><path fill="#fff" d="M0 0h289v36H0z"/></clipPath></defs></svg>