<svg width="218" height="27" viewBox="0 0 218 27" fill="none" xmlns="http://www.w3.org/2000/svg">
<g clip-path="url(#clip0_3001_1321)">
<path d="M46.0265 11.8087H40.6602V7.88843H55.4173V11.8087H50.051V26.7162H46.0265V11.8087Z" fill="#003049"/>
<path d="M64.652 21.2743H61.5304V26.7162H57.5059V7.88843H65.6325C69.6571 7.88843 72.5207 10.7255 72.5207 14.5942C72.5207 17.2766 71.1275 19.4945 68.9088 20.5779L72.882 26.7162H68.1609L64.652 21.2743ZM61.5304 17.3797H65.7099C67.361 17.3797 68.4962 16.219 68.4962 14.5942C68.4962 12.9694 67.361 11.8087 65.7356 11.8087H61.5304V17.3797Z" fill="#003049"/>
<path d="M84.9747 24.2404H78.2669L77.467 26.7164H73.4941L79.6084 7.88855H83.7362L89.8248 26.7164H85.7743L84.9747 24.2404ZM83.7362 20.3716L81.6208 13.8206L79.5054 20.3716H83.7362Z" fill="#003049"/>
<path d="M106.805 7.88843V26.7162H102.832L95.4016 15.0069V26.7162H91.4287V7.88843H95.4016L102.832 19.5978V7.88843H106.805Z" fill="#003049"/>
<path d="M116.245 11.4219C114.543 11.4219 113.511 12.2988 113.511 13.4079C113.511 14.1301 113.975 14.62 114.672 14.8779C115.884 15.3164 117.638 15.0843 119.47 15.6259C121.921 16.348 123.417 18.2051 123.417 20.7842C123.417 24.395 120.631 27 116.452 27C112.401 27 109.383 24.524 109.383 20.9131H113.356C113.356 22.2801 114.697 23.1829 116.503 23.1829C118.387 23.1829 119.444 22.2286 119.444 21.0163C119.444 20.1653 118.877 19.6493 118.232 19.4172C117.071 19.0046 115.084 19.1335 113.407 18.6692C110.905 17.973 109.537 16.0643 109.537 13.6141C109.537 10.1324 112.298 7.60474 116.297 7.60474C120.244 7.60474 123.133 9.97759 123.133 13.4594H119.135C119.083 12.2214 117.922 11.4219 116.245 11.4219Z" fill="#003049"/>
<path d="M125.894 7.88855H129.892L134.794 18.1535L139.644 7.88855H143.617V26.7164H139.619V16.5029L134.768 26.9226L129.866 16.5029V26.7164H125.894V7.88855Z" fill="#003049"/>
<path d="M146.666 7.88855H150.691V26.7164H146.666V7.88855Z" fill="#003049"/>
<path d="M158.404 11.8087H153.038V7.88843H167.795V11.8087H162.429V26.7162H158.404V11.8087Z" fill="#003049"/>
<path d="M173.08 11.8088H167.714V7.88855H182.471V11.8088H177.105V26.7164H173.08V11.8088Z" fill="#003049"/>
<path d="M184.817 7.88843H199.574V11.8087H188.79V15.2906H194.724V19.211H188.79V22.7959H199.574V26.7162H184.817V7.88843Z" fill="#003049"/>
<path d="M209.076 21.2743H205.954V26.7162H201.93V7.88843H210.056C214.081 7.88843 216.945 10.7255 216.945 14.5942C216.945 17.2766 215.551 19.4945 213.333 20.5779L217.306 26.7162H212.585L209.076 21.2743ZM205.954 17.3797H210.134C211.785 17.3797 212.92 16.219 212.92 14.5942C212.92 12.9694 211.785 11.8087 210.159 11.8087H205.954V17.3797Z" fill="#003049"/>
<path d="M23.4786 13.9938C22.3266 10.1395 18.7561 7.32886 14.5259 7.32886C10.2958 7.32886 6.72531 10.1395 5.57324 13.9938H23.4786Z" fill="#003049"/>
<path d="M21.7778 20.8687C20.8446 17.7467 17.9525 15.4701 14.5261 15.4701C11.0997 15.4701 8.2076 17.7467 7.27441 20.8687H21.7778Z" fill="#003049"/>
<path d="M20.4001 26.7179C19.6442 24.1891 17.3016 22.3451 14.5262 22.3451C11.7508 22.3451 9.40821 24.1891 8.65234 26.7179H20.4001Z" fill="#003049"/>
<path d="M14.5264 1.92548C20.9484 1.92548 26.4753 5.72921 28.9922 11.2036V0H0.0605469V11.2036C2.57765 5.72918 8.1044 1.92548 14.5264 1.92548Z" fill="#003049"/>
<path d="M42.2368 1.15196H40.6602V0H44.996V1.15196H43.4193V5.532H42.2368V1.15196Z" fill="#003049"/>
<path d="M45.7744 0H46.9571V2.17494H49.0719V0H50.2544V5.532H49.0719V3.32672H46.9571V5.532H45.7744V0Z" fill="#003049"/>
<path d="M51.2451 0H55.4172V1.15196H52.4125V2.17494H54.1559V3.32672H52.4125V4.38024H55.4172V5.53202H51.2451V0Z" fill="#003049"/>
</g>
<defs>
<clipPath id="clip0_3001_1321">
<rect width="218" height="27" fill="white"/>
</clipPath>
</defs>
</svg>
